HIERARCHY
ROOT Hips
{
	OFFSET 0.00 0.00 0.00
	CHANNELS 6 Xposition Yposition Zposition Zrotation Yrotation Xrotation
	JOINT Spine
	{
		OFFSET	0.0000	12.9474	1.3069
		CHANNELS 3 Zrotation Yrotation Xrotation
		JOINT Spine1
		{
			OFFSET	0.0000	11.6502	0.0897
			CHANNELS 3 Zrotation Yrotation Xrotation
			JOINT Spine2
			{
				OFFSET	0.0000	11.8996	-0.0200
				CHANNELS 3 Zrotation Yrotation Xrotation
				JOINT Neck
				{
					OFFSET	0.0000	29.8625	-6.8568
					CHANNELS 3 Zrotation Yrotation Xrotation
					JOINT Head
					{
						OFFSET	0.0000	15.8127	4.5046
						CHANNELS 3 Zrotation Yrotation Xrotation
						End Site
						{
							OFFSET 0.0000 16.9142 8.5489
						}
					}
				}
				JOINT LeftShoulder
				{
					OFFSET	15.6932	30.5276	-14.8855
					CHANNELS 3 Zrotation Yrotation Xrotation
					JOINT LeftArm
					{
						OFFSET	15.1106	-10.2541	-0.0017
						CHANNELS 3 Zrotation Yrotation Xrotation
						JOINT LeftForeArm
						{
							OFFSET	31.4047	-20.2208	-1.5857
							CHANNELS 3 Zrotation Yrotation Xrotation
							JOINT LeftHand
							{
								OFFSET	33.6957	-19.2580	15.6991
								CHANNELS 3 Zrotation Yrotation Xrotation
								JOINT LeftHandMiddle1
								{
									OFFSET	11.0571	-10.4817	9.4547
									CHANNELS 3 Zrotation Yrotation Xrotation
									JOINT LeftHandMiddle2
									{
										OFFSET	3.4215	-5.0087	3.1670
										CHANNELS 3 Zrotation Yrotation Xrotation
										JOINT LeftHandMiddle3
										{
											OFFSET	1.8148	-4.7192	2.5351
											CHANNELS 3 Zrotation Yrotation Xrotation
											End Site
											{
												OFFSET 0.5564 -3.7387 2.3634
											}
										}
									}
								}
								JOINT LeftHandThumb1
								{
									OFFSET	-1.0031	-1.2668	10.5842
									CHANNELS 3 Zrotation Yrotation Xrotation
									JOINT LeftHandThumb2
									{
										OFFSET	0.2584	0.1803	6.9748
										CHANNELS 3 Zrotation Yrotation Xrotation
										JOINT LeftHandThumb3
										{
											OFFSET	0.4558	-1.3006	4.2279
											CHANNELS 3 Zrotation Yrotation Xrotation
											End Site
											{
												OFFSET 0.3543 -2.2515 4.8270
											}
										}
									}
								}
								JOINT LeftHandIndex1
								{
									OFFSET	10.1078	-6.3687	14.1094
									CHANNELS 3 Zrotation Yrotation Xrotation
									JOINT LeftHandIndex2
									{
										OFFSET	3.1194	-3.8277	3.9230
										CHANNELS 3 Zrotation Yrotation Xrotation
										JOINT LeftHandIndex3
										{
											OFFSET	1.3756	-4.1963	2.9070
											CHANNELS 3 Zrotation Yrotation Xrotation
											End Site
											{
												OFFSET 0.6727 -3.7890 2.5988
											}
										}
									}
								}
								JOINT LeftHandRing1
								{
									OFFSET	10.0847	-13.6899	4.3344
									CHANNELS 3 Zrotation Yrotation Xrotation
									JOINT LeftHandRing2
									{
										OFFSET	3.2413	-5.1039	1.8840
										CHANNELS 3 Zrotation Yrotation Xrotation
										JOINT LeftHandRing3
										{
											OFFSET	1.5323	-5.0397	1.9270
											CHANNELS 3 Zrotation Yrotation Xrotation
											End Site
											{
												OFFSET 0.8809 -4.1420 1.4919
											}
										}
									}
								}
								JOINT LeftHandPinky1
								{
									OFFSET	9.0408	-16.1777	-0.5730
									CHANNELS 3 Zrotation Yrotation Xrotation
									JOINT LeftHandPinky2
									{
										OFFSET	2.5791	-4.9057	0.6134
										CHANNELS 3 Zrotation Yrotation Xrotation
										JOINT LeftHandPinky3
										{
											OFFSET	0.8052	-3.7871	1.3188
											CHANNELS 3 Zrotation Yrotation Xrotation
											End Site
											{
												OFFSET 0.2188 -3.8976 1.6089
											}
										}
									}
								}
							}
						}
					}
				}
				JOINT RightShoulder
				{
					OFFSET	-15.6932	30.5276	-14.8855
					CHANNELS 3 Zrotation Yrotation Xrotation
					JOINT RightArm
					{
						OFFSET	-15.1106	-10.2541	-0.0017
						CHANNELS 3 Zrotation Yrotation Xrotation
						JOINT RightForeArm
						{
							OFFSET	-31.4047	-20.2208	-1.5857
							CHANNELS 3 Zrotation Yrotation Xrotation
							JOINT RightHand
							{
								OFFSET	-33.6957	-19.2580	15.6991
								CHANNELS 3 Zrotation Yrotation Xrotation
								JOINT RightHandThumb1
								{
									OFFSET	1.0031	-1.2668	10.5842
									CHANNELS 3 Zrotation Yrotation Xrotation
									JOINT RightHandThumb2
									{
										OFFSET	-0.2584	0.1803	6.9748
										CHANNELS 3 Zrotation Yrotation Xrotation
										JOINT RightHandThumb3
										{
											OFFSET	-0.4558	-1.3006	4.2279
											CHANNELS 3 Zrotation Yrotation Xrotation
											End Site
											{
												OFFSET -0.3543 -2.2515 4.8270
											}
										}
									}
								}
								JOINT RightHandIndex1
								{
									OFFSET	-10.1078	-6.3687	14.1094
									CHANNELS 3 Zrotation Yrotation Xrotation
									JOINT RightHandIndex2
									{
										OFFSET	-3.1194	-3.8277	3.9230
										CHANNELS 3 Zrotation Yrotation Xrotation
										JOINT RightHandIndex3
										{
											OFFSET	-1.3756	-4.1963	2.9070
											CHANNELS 3 Zrotation Yrotation Xrotation
											End Site
											{
												OFFSET -0.6727 -3.7890 2.5988
											}
										}
									}
								}
								JOINT RightHandMiddle1
								{
									OFFSET	-11.0571	-10.4817	9.4547
									CHANNELS 3 Zrotation Yrotation Xrotation
									JOINT RightHandMiddle2
									{
										OFFSET	-3.4215	-5.0087	3.1670
										CHANNELS 3 Zrotation Yrotation Xrotation
										JOINT RightHandMiddle3
										{
											OFFSET	-1.8148	-4.7192	2.5351
											CHANNELS 3 Zrotation Yrotation Xrotation
											End Site
											{
												OFFSET -0.5564 -3.7387 2.3634
											}
										}
									}
								}
								JOINT RightHandRing1
								{
									OFFSET	-10.0847	-13.6899	4.3344
									CHANNELS 3 Zrotation Yrotation Xrotation
									JOINT RightHandRing2
									{
										OFFSET	-3.2413	-5.1039	1.8840
										CHANNELS 3 Zrotation Yrotation Xrotation
										JOINT RightHandRing3
										{
											OFFSET	-1.5323	-5.0397	1.9270
											CHANNELS 3 Zrotation Yrotation Xrotation
											End Site
											{
												OFFSET -0.8809 -4.1420 1.4919
											}
										}
									}
								}
								JOINT RightHandPinky1
								{
									OFFSET	-9.0408	-16.1777	-0.5730
									CHANNELS 3 Zrotation Yrotation Xrotation
									JOINT RightHandPinky2
									{
										OFFSET	-2.5791	-4.9057	0.6134
										CHANNELS 3 Zrotation Yrotation Xrotation
										JOINT RightHandPinky3
										{
											OFFSET	-0.8052	-3.7871	1.3188
											CHANNELS 3 Zrotation Yrotation Xrotation
											End Site
											{
												OFFSET -0.2188 -3.8976 1.6089
											}
										}
									}
								}
							}
						}
					}
				}
			}
		}
	}
	JOINT LeftUpLeg
	{
		OFFSET	15.6585	-8.4068	1.4670
		CHANNELS 3 Zrotation Yrotation Xrotation
		JOINT LeftLeg
		{
			OFFSET	4.8126	-36.5793	1.4225
			CHANNELS 3 Zrotation Yrotation Xrotation
			JOINT LeftFoot
			{
				OFFSET	3.3315	-36.9309	-9.3826
				CHANNELS 3 Zrotation Yrotation Xrotation
				JOINT LeftToeBase
				{
					OFFSET	5.8406	-16.0536	19.7570
					CHANNELS 3 Zrotation Yrotation Xrotation
					End Site
					{
						OFFSET 2.6829 1.8767 15.4928
					}
				}
			}
		}
	}
	JOINT RightUpLeg
	{
		OFFSET	-15.6585	-8.4068	1.4670
		CHANNELS 3 Zrotation Yrotation Xrotation
		JOINT RightLeg
		{
			OFFSET	-4.8126	-36.5793	1.4225
			CHANNELS 3 Zrotation Yrotation Xrotation
			JOINT RightFoot
			{
				OFFSET	-3.3315	-36.9309	-9.3826
				CHANNELS 3 Zrotation Yrotation Xrotation
				JOINT RightToeBase
				{
					OFFSET	-5.8406	-16.0536	19.7570
					CHANNELS 3 Zrotation Yrotation Xrotation
					End Site
					{
						OFFSET -2.6829 1.8767 15.4928
					}
				}
			}
		}
	}
}
MOTION
Frames: 4
Frame Time: 0.0333333
3.0039 91.6220 0.0703 0.2430 -32.4818 -1.6523 1.7322 16.0171 5.4518 0.9035 0.8485 4.3671 0.9143 0.8686 4.3611 -2.6022 1.4178 0.8931 -8.8658 5.0472 0.1460 -2.9213 -12.8963 4.6244 -21.7082 -23.6204 -37.7871 77.5128 -57.9272 -113.2708 33.0245 -24.0332 43.0698 -72.5909 -34.0922 27.1994 -80.7577 -29.2093 25.8492 -38.5528 -16.6810 11.6455 -0.5519 7.5734 38.9864 -5.9302 -3.1867 -0.5005 0.7399 30.9047 43.0844 -72.2625 -27.6097 36.4654 -74.8136 -34.8519 32.4193 -42.5992 -21.4190 14.4955 -71.3900 -40.0510 17.9546 -77.7472 -24.3789 14.1567 -47.0731 -17.8996 3.3289 -71.9433 -45.5574 9.7719 -74.5652 -19.8316 9.0339 -40.6003 -15.1826 2.9090 -1.6767 18.9613 0.8482 16.5189 40.9382 -25.6976 -67.0225 59.6401 -101.0211 -48.5369 -1.3080 21.4681 12.7790 -14.0658 40.1991 -2.1624 0.8571 -6.2058 -32.0998 -10.1099 52.5490 79.4717 27.7012 40.9005 70.7603 34.6581 29.7818 44.0364 21.8315 15.2343 80.4118 34.1962 31.8537 76.9332 28.9574 23.9404 39.7429 17.7427 12.1838 78.8565 40.1709 22.4831 75.1117 23.9481 13.2618 48.9131 18.7397 3.8974 76.6988 46.5128 10.9989 72.0450 15.1611 7.7760 44.1853 16.3746 3.5439 2.7280 14.1611 -28.3914 -1.3132 -5.5760 42.0560 -3.4677 -3.8006 -11.7179 -0.0000 -0.0000 -0.0852 -2.7207 -7.1880 -24.4946 -4.8256 -8.3593 44.0068 2.4213 1.8455 -16.8862 -0.0000 0.0000 -0.0000 
2.1811 90.7004 -0.7097 -0.0550 -29.3697 -2.7274 2.4764 15.8037 5.8278 1.2780 0.6798 4.6419 1.2886 0.7114 4.6347 -2.8154 1.3471 0.9659 -8.5324 4.3652 0.6800 -3.7442 -12.5835 4.7015 -23.2343 -24.3261 -35.3723 76.8264 -58.0828 -112.4617 34.6053 -24.8279 41.4458 -72.5909 -34.0922 27.1994 -80.7578 -29.2093 25.8492 -38.5528 -16.6810 11.6454 -0.5519 7.5733 38.9864 -5.9302 -3.1867 -0.5005 0.7398 30.9047 43.0844 -72.2626 -27.6097 36.4654 -74.8136 -34.8519 32.4193 -42.5992 -21.4190 14.4955 -71.3900 -40.0510 17.9546 -77.7472 -24.3789 14.1567 -47.0731 -17.8996 3.3289 -71.9433 -45.5574 9.7719 -74.5652 -19.8316 9.0339 -40.6003 -15.1826 2.9090 -2.5956 18.5422 0.5354 16.9314 40.5044 -24.8692 -67.2102 59.6209 -101.2386 -49.0738 -0.6418 21.1151 12.7790 -14.0658 40.1991 -2.1625 0.8571 -6.2058 -32.0998 -10.1099 52.5490 79.4717 27.7012 40.9005 70.7603 34.6581 29.7818 44.0364 21.8315 15.2344 80.4118 34.1961 31.8537 76.9332 28.9574 23.9403 39.7429 17.7427 12.1838 78.8565 40.1709 22.4831 75.1117 23.9481 13.2618 48.9131 18.7397 3.8974 76.6988 46.5128 10.9989 72.0451 15.1611 7.7760 44.1853 16.3746 3.5438 3.3246 13.4654 -30.8053 -1.3351 -5.0122 47.6801 -2.6956 -6.8872 -10.8246 -0.0000 -0.0000 -6.1063 -3.9130 -9.1637 -21.6221 -4.1377 -9.6052 45.7974 2.5429 1.9876 -19.8568 0.0000 -0.0000 0.0000 
1.4265 90.1359 -1.3676 -0.0417 -27.1325 -3.4842 3.1722 15.7649 6.0419 1.5797 0.6827 4.8089 1.5916 0.7215 4.7997 -3.1020 1.3152 1.2343 -8.1351 3.8101 1.4579 -4.5902 -11.6814 4.6108 -25.2864 -25.2185 -31.6965 76.0700 -58.2466 -111.5716 36.3912 -25.6909 39.6894 -72.5909 -34.0922 27.1994 -80.7578 -29.2093 25.8492 -38.5528 -16.6810 11.6455 -0.5519 7.5733 38.9864 -5.9302 -3.1867 -0.5005 0.7398 30.9047 43.0844 -72.2626 -27.6097 36.4654 -74.8136 -34.8519 32.4193 -42.5992 -21.4190 14.4955 -71.3900 -40.0510 17.9546 -77.7472 -24.3789 14.1567 -47.0731 -17.8996 3.3289 -71.9433 -45.5574 9.7719 -74.5653 -19.8316 9.0339 -40.6003 -15.1826 2.9090 -2.7558 18.4297 0.4781 17.4117 39.8421 -23.3959 -67.5280 59.5876 -101.6070 -49.6588 -0.0538 20.9600 12.7790 -14.0658 40.1991 -2.1624 0.8571 -6.2058 -32.0998 -10.1099 52.5490 79.4717 27.7012 40.9005 70.7603 34.6581 29.7818 44.0364 21.8315 15.2343 80.4119 34.1961 31.8537 76.9332 28.9574 23.9403 39.7429 17.7427 12.1838 78.8565 40.1709 22.4831 75.1117 23.9481 13.2618 48.9131 18.7397 3.8974 76.6988 46.5128 10.9989 72.0451 15.1611 7.7760 44.1853 16.3746 3.5439 3.6532 12.7045 -34.6246 -1.3169 -3.8554 53.6918 -1.7222 -9.5056 -6.6866 -0.0000 -0.0000 -8.8169 -5.1368 -10.5720 -18.8981 -4.0169 -10.8072 46.5703 3.1322 2.1598 -22.0331 -0.0000 0.0000 -0.0000 
0.7636 89.8416 -1.9241 0.3508 -26.4046 -4.1355 3.6362 15.9914 6.0713 1.7051 0.9424 4.8503 1.7201 0.9836 4.8375 -3.3699 1.2992 1.6214 -7.6388 3.3157 2.3684 -5.2680 -10.2889 4.3394 -27.4346 -25.9796 -27.2059 75.0224 -58.4603 -110.3413 37.7218 -26.4822 38.3689 -72.5909 -34.0922 27.1994 -80.7578 -29.2093 25.8492 -38.5528 -16.6810 11.6454 -0.5519 7.5733 38.9864 -5.9302 -3.1868 -0.5005 0.7398 30.9047 43.0843 -72.2626 -27.6097 36.4654 -74.8136 -34.8519 32.4193 -42.5992 -21.4190 14.4955 -71.3900 -40.0510 17.9546 -77.7472 -24.3789 14.1567 -47.0730 -17.8996 3.3289 -71.9433 -45.5574 9.7719 -74.5652 -19.8316 9.0339 -40.6003 -15.1826 2.9090 -2.2164 18.6938 0.6513 18.0742 39.0086 -21.5097 -67.9319 59.5436 -102.0753 -50.0443 0.2611 21.0787 12.7790 -14.0658 40.1991 -2.1624 0.8571 -6.2058 -32.0998 -10.1099 52.5490 79.4717 27.7012 40.9005 70.7603 34.6581 29.7818 44.0364 21.8315 15.2343 80.4119 34.1961 31.8537 76.9332 28.9574 23.9403 39.7429 17.7427 12.1838 78.8565 40.1709 22.4831 75.1117 23.9481 13.2618 48.9131 18.7397 3.8974 76.6988 46.5128 10.9989 72.0450 15.1611 7.7760 44.1853 16.3746 3.5439 3.8268 12.3667 -37.8328 -1.3191 -2.6194 58.3191 -0.9956 -11.2460 -1.1369 0.0746 0.0122 -15.3100 -5.8337 -10.9265 -16.9722 -4.4717 -10.8176 46.9395 4.0052 2.3343 -23.5654 0.0000 0.0000 0.0000 
